<?xml version="1.0" encoding="UTF-8" standalone="no"?>
<svg
   xmlns:dc="http://purl.org/dc/elements/1.1/"
   xmlns:cc="http://creativecommons.org/ns#"
   xmlns:rdf="http://www.w3.org/1999/02/22-rdf-syntax-ns#"
   xmlns:svg="http://www.w3.org/2000/svg"
   xmlns="http://www.w3.org/2000/svg"
   xmlns:sodipodi="http://sodipodi.sourceforge.net/DTD/sodipodi-0.dtd"
   xmlns:inkscape="http://www.inkscape.org/namespaces/inkscape"
   viewBox="0 0 520.82416 520.82416"
   version="1.1"
   id="svg864"
   sodipodi:docname="dump-icon-plain-text.svg"
   inkscape:version="1.0.2-2 (e86c870879, 2021-01-15)"
   width="520.82416"
   height="520.82416">
  <metadata
     id="metadata870">
    <rdf:RDF>
      <cc:Work
         rdf:about="">
        <dc:format>image/svg+xml</dc:format>
        <dc:type
           rdf:resource="http://purl.org/dc/dcmitype/StillImage" />
        <dc:title />
      </cc:Work>
    </rdf:RDF>
  </metadata>
  <defs
     id="defs868" />
  <sodipodi:namedview
     pagecolor="#ffffff"
     bordercolor="#666666"
     borderopacity="1"
     objecttolerance="10"
     gridtolerance="10"
     guidetolerance="10"
     inkscape:pageopacity="0"
     inkscape:pageshadow="2"
     inkscape:window-width="1920"
     inkscape:window-height="1057"
     id="namedview866"
     showgrid="false"
     inkscape:zoom="1.2291505"
     inkscape:cx="112.76953"
     inkscape:cy="277.74222"
     inkscape:window-x="154"
     inkscape:window-y="-8"
     inkscape:window-maximized="1"
     inkscape:current-layer="svg864"
     inkscape:document-rotation="0" />
  <!--! Font Awesome Pro 6.2.0 by @fontawesome - https://fontawesome.com License - https://fontawesome.com/license (Commercial License) Copyright 2022 Fonticons, Inc. -->
  <path
     id="path862"
     d="m 308.91135,0.01180532 c -61.63104,0.00432 -123.26263,-0.032774 -184.89333,0.033842 -1.84227,0.058997 -3.8866,0.2089558 -5.82714,0.4760593 -1.37373,0.1832349 -2.51472,0.3778238 -3.8846,0.65277818 -8.35444,1.696239 -16.330261,5.2312204 -23.192012,10.2909332 -0.383614,0.295844 -1.084011,0.814518 -1.57494,1.212409 -7.76816,6.141025 -13.934202,14.271988 -17.77213,23.399017 -0.149131,0.38795 -0.443584,1.067113 -0.602318,1.495182 -2.333646,5.989458 -3.658387,12.372108 -3.88274,18.797299 -0.01592,0.433272 -0.04376,1.136573 -0.0501,1.62371 -0.06326,6.686883 0.0035,13.37472 -0.02158,20.06207 0.0012,128.453365 -0.0015,256.906955 0.03051,385.360175 0.286755,15.29259 6.896815,30.34409 17.961062,40.90528 5.866303,5.66666 12.920277,10.10185 20.579418,12.90853 0.57776,0.21433 1.58849,0.55985 2.16704,0.7459 6.28375,2.03041 12.90302,2.93378 19.49988,2.84297 28.15826,-0.0258 56.31694,-0.003 84.47538,-0.0115 61.471,-0.002 122.9423,-0.005 184.41311,-0.0302 13.97892,-0.30644 27.73666,-5.92319 38.03103,-15.36785 0.262,-0.25893 0.83501,-0.77146 1.2113,-1.14753 7.34516,-7.0998 12.83426,-16.11073 15.71175,-25.91663 0.13163,-0.47863 0.38023,-1.31784 0.53195,-1.94073 0.27665,-1.07544 0.5235,-2.19365 0.70477,-3.17323 0.26711,-1.35675 0.51234,-2.96315 0.67775,-4.46638 0.21686,-1.90449 0.33824,-3.78245 0.38883,-5.62698 0.0553,-12.87302 0.003,-25.74698 0.0176,-38.62036 -0.007,-96.2472 0.007,-192.49464 -0.028,-288.74171 -0.0235,-0.66678 -0.0238,-1.19445 -0.0622,-1.74981 -0.13455,-2.71228 -0.47414,-5.41234 -0.98589,-8.07885 -0.0855,-0.36017 -0.2374,-1.17495 -0.36655,-1.71162 -2.55067,-11.33145 -8.51332,-21.86814 -16.95468,-29.852493 -26.16354,-26.159889 -52.29233,-52.354638 -78.50426,-78.464651 -1.58407,-1.481395 -3.11893,-2.766131 -4.86821,-4.076849 -1.30095,-0.975957 -2.64671,-1.891137 -4.0212,-2.7601958 -0.32908,-0.2001289 -1.01103,-0.6298173 -1.49118,-0.903609 -8.30101,-4.873176 -17.79463,-7.74895598 -27.42484,-8.10137128 -0.62127,-0.023956 -1.45021,-0.045602 -2.19884,-0.058309 -2.59814,-0.030824 -5.19641,-0.011882 -7.79461,-0.00526 z M 125.90577,33.743055 c 58.83487,0 117.66974,0 176.5046,0 0.0105,31.291522 -0.048,62.584123 0.0557,93.874945 0.49925,9.37075 6.75712,18.16781 15.48088,21.65342 3.81232,1.5998 7.99452,2.12844 12.10416,1.93423 29.67124,0 59.3425,0 89.01375,0 0,101.83633 0,203.67266 0,305.50899 1.41939,2.20527 0.99337,4.91796 0.86952,7.38897 -0.62233,7.18273 -4.39334,14.07476 -10.29334,18.26635 -4.7218,3.45078 -10.65151,5.15963 -16.48534,4.81545 -79.08605,0.0437 -158.17212,0.0192 -237.25817,0.006 -10.44114,-0.0178 -20.88372,0.0242 -31.32396,-0.0308 -10.02252,-0.45421 -19.36689,-7.57061 -22.436,-17.12892 -1.40016,-4.04265 -1.40378,-8.37336 -1.30687,-12.59807 -0.006,-133.16247 -0.0196,-266.32534 0.005,-399.487572 0.26353,-10.218062 7.48444,-19.858686 17.2507,-22.915951 2.51529,-0.841455 5.16911,-1.259402 7.81969,-1.287057 z"
     style="display:inline;stroke-width:1.05" />
  <text
     xml:space="preserve"
     style="font-style:normal;font-weight:normal;font-size:146.667px;line-height:1.25;font-family:sans-serif;letter-spacing:0px;display:inline;fill:#000000;fill-opacity:1;stroke:none"
     x="131.50552"
     y="407.28391"
     id="text1108"><tspan
       sodipodi:role="line"
       id="tspan1106"
       x="131.50552"
       y="407.28391"
       style="font-style:normal;font-variant:normal;font-weight:bold;font-stretch:normal;font-size:146.667px;font-family:'Cascadia Code';-inkscape-font-specification:'Cascadia Code Bold'">TXT</tspan></text>
</svg>
