<svg id="SVGRoot" width="64px" height="64px" version="1.1" viewBox="0 0 64 64" xmlns="http://www.w3.org/2000/svg">
 <circle cx="32" cy="32" r="31.964" fill="#c5e22c" stroke-width="16.72"/>
 <path d="m32 50.24q-4.16 0-7.296-1.664-3.072-1.664-4.8-4.672-1.664-3.072-1.664-7.104v-9.6q0-4.096 1.664-7.104 1.728-3.008 4.8-4.672 3.136-1.664 7.296-1.664t7.232 1.664q3.136 1.664 4.8 4.672 1.728 3.008 1.728 7.104v6.208h-21.888v3.392q0 4.16 2.112 6.4 2.112 2.176 6.016 2.176 3.328 0 5.376-1.152 2.048-1.216 2.496-3.584h5.76q-0.576 4.416-4.352 7.04-3.712 2.56-9.28 2.56zm-8.128-21.184h16.256v-1.856q0-4.16-2.112-6.4-2.048-2.24-6.016-2.24-3.904 0-6.016 2.24t-2.112 6.4z"/>
</svg>
