<svg xmlns="http://www.w3.org/2000/svg" width="16" height="16" fill="currentColor" version="1.1" viewBox="0 0 16 16">
 <path d="m7.9334 11.857v4h1.459c0.40199 0 0.73405-0.08028 0.99805-0.23828a1.45 1.45 0 0 0 0.5957-0.6875c0.13-0.3 0.19531-0.66198 0.19531-1.084 0-0.42-0.06431-0.77917-0.19531-1.0762a1.426 1.426 0 0 0-0.58984-0.67969c-0.263-0.156-0.59791-0.23438-1.0039-0.23438zm0.78906 0.64453h0.56445c0.248 0 0.45038 0.05034 0.60938 0.15234a0.89 0.89 0 0 1 0.35352 0.45508c0.079 0.201 0.11914 0.45095 0.11914 0.75195a2.3 2.3 0 0 1-0.06836 0.5918 1.141 1.141 0 0 1-0.19727 0.42188 0.8 0.8 0 0 1-0.33398 0.25195 1.298 1.298 0 0 1-0.48242 0.08203h-0.56445zm-4.5715 2.6943a1.176 1.176 0 0 1-0.111-0.449h0.764a0.578 0.578 0 0 0 0.255 0.384c0.07 0.049 0.154 0.087 0.25 0.114 0.095 0.028 0.201 0.041 0.319 0.041 0.164 0 0.301-0.023 0.413-0.07a0.559 0.559 0 0 0 0.255-0.193 0.507 0.507 0 0 0 0.084-0.29 0.387 0.387 0 0 0-0.152-0.326c-0.101-0.08-0.256-0.144-0.463-0.193l-0.618-0.143a1.72 1.72 0 0 1-0.539-0.214 1.001 1.001 0 0 1-0.352-0.367 1.068 1.068 0 0 1-0.123-0.524c0-0.244 0.064-0.457 0.19-0.639 0.128-0.181 0.304-0.322 0.528-0.422 0.225-0.1 0.484-0.149 0.777-0.149 0.304 0 0.564 0.05 0.779 0.152 0.217 0.102 0.384 0.239 0.5 0.41 0.12 0.17 0.186 0.359 0.2 0.566h-0.75a0.56 0.56 0 0 0-0.12-0.258 0.624 0.624 0 0 0-0.246-0.181 0.923 0.923 0 0 0-0.37-0.068c-0.216 0-0.387 0.05-0.512 0.152a0.472 0.472 0 0 0-0.185 0.384c0 0.121 0.048 0.22 0.144 0.3a0.97 0.97 0 0 0 0.404 0.175l0.621 0.143c0.217 0.05 0.406 0.12 0.566 0.211a1 1 0 0 1 0.375 0.358c0.09 0.148 0.135 0.335 0.135 0.56 0 0.247-0.063 0.466-0.188 0.656a1.216 1.216 0 0 1-0.539 0.439c-0.234 0.105-0.52 0.158-0.858 0.158-0.254 0-0.476-0.03-0.665-0.09a1.404 1.404 0 0 1-0.478-0.252 1.13 1.13 0 0 1-0.29-0.375zm9.849-10.696v9.5a2 2 0 0 1-2 2v-1a1 1 0 0 0 1-1v-9.5h-2a1.5 1.5 0 0 1-1.5-1.5v-2h-5.5a1 1 0 0 0-1 1v9h-1v-9a2 2 0 0 1 2-2h5.5zm-10.473 7.35h-0.893l-0.823 1.439h-0.036l-0.832-1.439h-0.931l1.227 1.983-1.239 2.017h0.861l0.853-1.415h0.035l0.85 1.415h0.908l-1.254-1.992 1.274-2.007z"/>
</svg>
