<?xml version="1.0" encoding="UTF-8" standalone="no"?>
<svg
   xmlns:dc="http://purl.org/dc/elements/1.1/"
   xmlns:cc="http://creativecommons.org/ns#"
   xmlns:rdf="http://www.w3.org/1999/02/22-rdf-syntax-ns#"
   xmlns:svg="http://www.w3.org/2000/svg"
   xmlns="http://www.w3.org/2000/svg"
   xmlns:sodipodi="http://sodipodi.sourceforge.net/DTD/sodipodi-0.dtd"
   xmlns:inkscape="http://www.inkscape.org/namespaces/inkscape"
   version="1.1"
   id="svg3671"
   sodipodi:version="0.32"
   inkscape:version="1.0.2-2 (e86c870879, 2021-01-15)"
   sodipodi:docname="logo.svg"
   inkscape:output_extension="org.inkscape.output.svg.inkscape"
   x="0px"
   y="0px"
   width="295.96274"
   height="300"
   viewBox="88.421 48.5 295.96274 300"
   enable-background="new 88.421 48.5 476 201"
   xml:space="preserve"
   inkscape:export-filename="D:\sources\gtav-DumpStructs\src\Pages\img\logo.png"
   inkscape:export-xdpi="192"
   inkscape:export-ydpi="192"><metadata
     id="metadata20"><rdf:RDF><cc:Work
         rdf:about=""><dc:format>image/svg+xml</dc:format><dc:type
           rdf:resource="http://purl.org/dc/dcmitype/StillImage" /><dc:title /></cc:Work></rdf:RDF></metadata><defs
     id="defs11" /><sodipodi:namedview
     id="base"
     showgrid="false"
     objecttolerance="10"
     guidetolerance="10"
     gridtolerance="10000"
     inkscape:cy="85.555769"
     borderopacity="1.0"
     inkscape:cx="290.73444"
     bordercolor="#666666"
     pagecolor="#ffffff"
     inkscape:zoom="0.98994949"
     inkscape:window-y="-8"
     inkscape:window-x="154"
     inkscape:window-height="1057"
     inkscape:window-width="1920"
     inkscape:current-layer="layer1"
     inkscape:document-units="px"
     inkscape:pageshadow="2"
     inkscape:pageopacity="0.0"
     inkscape:window-maximized="1"
     inkscape:document-rotation="0" /><g
     id="layer1"
     transform="matrix(1.6287015,0,0,1.6287015,-597.63856,-160.08321)"
     inkscape:label="Layer 1"
     inkscape:groupmode="layer"><g
       id="g2384"
       inkscape:export-xdpi="96"
       inkscape:export-ydpi="96"><path
         style="fill:#ffa500"
         inkscape:connector-curvature="0"
         id="path18"
         d="m 446.033,128.06718 58.069,0.133 c 12.137,-0.089 21.197,1.805 27.185,5.682 7.309,4.754 10.963,12.932 10.963,24.533 0,19.104 -9.062,29.926 -27.185,32.466 v 0.267 c 7.992,1.946 12.032,8.416 12.121,19.408 0,5.63 -0.215,12.843 -0.646,21.637 0,5.897 1.277,11 3.833,15.309 h -31.82 c -1.485,-1.575 -2.229,-4.783 -2.229,-9.627 0.609,-8.096 0.914,-14.736 0.914,-19.92 0,-10.473 -5.147,-15.709 -15.442,-15.709 h -20.589 l -8.98,42.36 h -30.996 z m 49.089,24.288 h -22.817 l -5.949,28.121 h 24.689 c 13.8,0 20.746,-5.326 20.834,-15.977 0,-8.096 -5.585,-12.144 -16.757,-12.144 z" /><path
         style="fill:#ffa500"
         inkscape:connector-curvature="0"
         id="path20"
         d="m 534.585,247.308 22.974,-38.928 6.194,39.195 h 39.195 l -35.363,24.823 5.66,38.929 -30.616,-23.486 -41.156,24.422 19.253,-41.446 -22.439,-23.62 z" /><path
         style="fill:#ffffff"
         inkscape:connector-curvature="0"
         id="path3659"
         d="m 561.368,269.612 23.486,-16.355 h -25.981 l -4.501,-28.366 -16.489,28.099 h -26.249 l 15.954,16.757 -13.19,28.121 28.633,-16.891 22.572,17.291 z" /></g></g></svg>
