<svg width="295.96" height="300" enable-background="new 88.421 48.5 476 201" version="1.1" viewBox="88.421 48.5 295.96 300" xml:space="preserve" xmlns="http://www.w3.org/2000/svg"><g transform="matrix(1.6287 0 0 1.6287 -597.64 -160.08)"><path d="m446.03 128.07 58.069 0.133c12.137-0.089 21.197 1.805 27.185 5.682 7.309 4.754 10.963 12.932 10.963 24.533 0 19.104-9.062 29.926-27.185 32.466v0.267c7.992 1.946 12.032 8.416 12.121 19.408 0 5.63-0.215 12.843-0.646 21.637 0 5.897 1.277 11 3.833 15.309h-31.82c-1.485-1.575-2.229-4.783-2.229-9.627 0.609-8.096 0.914-14.736 0.914-19.92 0-10.473-5.147-15.709-15.442-15.709h-20.589l-8.98 42.36h-30.996zm49.089 24.288h-22.817l-5.949 28.121h24.689c13.8 0 20.746-5.326 20.834-15.977 0-8.096-5.585-12.144-16.757-12.144z" fill="#ffa500"/><path d="m534.58 247.31 22.974-38.928 6.194 39.195h39.195l-35.363 24.823 5.66 38.929-30.616-23.486-41.156 24.422 19.253-41.446-22.439-23.62z" fill="#ffa500"/><path d="m561.37 269.61 23.486-16.355h-25.981l-4.501-28.366-16.489 28.099h-26.249l15.954 16.757-13.19 28.121 28.633-16.891 22.572 17.291z" fill="#fff"/></g></svg>
