<svg id="SVGRoot" width="64px" height="64px" version="1.1" viewBox="0 0 64 64" xmlns="http://www.w3.org/2000/svg">
 <circle cx="32" cy="32" r="31.964" fill="#e28f2c" stroke-width="16.72"/>
 <path d="m30.592 49.965q-5.44 0-8.896-2.496t-3.456-6.848h5.888q0 1.984 1.856 3.136 1.92 1.088 4.736 1.088h2.688q3.392 0 5.056-1.344 1.664-1.408 1.664-3.712 0-2.24-1.6-3.52-1.536-1.344-4.48-1.792l-4.736-0.768q-5.248-0.896-7.744-3.328t-2.496-6.72q0-4.8 3.072-7.36 3.136-2.56 8.96-2.56h2.432q5.376 0 8.576 2.432 3.264 2.368 3.264 6.336h-5.888q0-1.664-1.664-2.624-1.6-1.024-4.416-1.024h-2.432q-3.008 0-4.672 1.28-1.6 1.216-1.6 3.52 0 3.84 5.44 4.736l4.736 0.768q5.696 0.896 8.256 3.328 2.624 2.432 2.624 7.04 0 4.864-3.136 7.68-3.072 2.752-9.344 2.752z"/>
</svg>
